<?xml version='1.0' encoding='utf-8'?>
<svg xmlns="http://www.w3.org/2000/svg" version="1.1" id="Ebene_2" x="0px" y="0px" width="3072px" height="4096px" viewBox="0 0 3072 4096" enable-background="new 0 0 3072 4096"> <path fill="#FDEE66" stroke="#000000" stroke-width="15" stroke-linecap="round" stroke-linejoin="round" stroke-miterlimit="10" d=" M2854.667,858.167C2008.834-520.999,255.7,374.944,275.5,1454.002c7.143,389.301,107.435,720.859,290.341,974.774 c243.857,338.528,634.564,539.046,1147.159,554.393c695.834,20.833,1086.478-540.888,1120.834-641.667 c-300,241.667-916.668,512.5-1400,112.5s-625-1087.5-254.167-1500S2141.113,386.177,2500.5,599.835 C2780,766,2854.667,858.167,2854.667,858.167z"/> <line fill="#FDEE66" stroke="#000000" stroke-width="15" stroke-linecap="round" stroke-linejoin="round" stroke-miterlimit="10" x1="565.841" y1="2428.776" x2="563" y2="2791.502"/> <line fill="#FDEE66" stroke="#000000" stroke-width="15" stroke-linecap="round" stroke-linejoin="round" stroke-miterlimit="10" x1="917.167" y1="3633.169" x2="917.167" y2="2759.389"/> <line fill="#FDEE66" stroke="#000000" stroke-width="15" stroke-linecap="round" stroke-linejoin="round" stroke-miterlimit="10" x1="1583.834" y1="3262.335" x2="1583.834" y2="2975.164"/> <line fill="#FDEE66" stroke="#000000" stroke-width="15" stroke-linecap="round" stroke-linejoin="round" stroke-miterlimit="10" x1="2196.334" y1="3541.502" x2="2196.334" y2="2898.271"/> <line fill="#FDEE66" stroke="#000000" stroke-width="15" stroke-linecap="round" stroke-linejoin="round" stroke-miterlimit="10" x1="2646.334" y1="2898.271" x2="2646.334" y2="2595.563"/> <polygon fill="#FDEE66" stroke="#000000" stroke-width="15" stroke-linecap="round" stroke-linejoin="round" stroke-miterlimit="10" points=" 2679.667,2997.667 2771.667,3009.667 2691.667,3074.333 2707,3163 2631,3097.667 2559.667,3163 2574.333,3055 2495,2993.667 2594.333,2993.667 2646.334,2893 "/> <polygon fill="#FDEE66" stroke="#000000" stroke-width="15" stroke-linecap="round" stroke-linejoin="round" stroke-miterlimit="10" points=" 596.434,2886.168 688.434,2898.168 608.434,2962.834 623.767,3051.502 547.767,2986.168 476.434,3051.502 491.1,2943.502 411.767,2882.168 511.1,2882.168 563.101,2781.502 "/> <polygon fill="#FDEE66" stroke="#000000" stroke-width="15" stroke-linecap="round" stroke-linejoin="round" stroke-miterlimit="10" points=" 951.5,3728.835 1043.5,3740.835 963.5,3805.501 978.833,3894.168 902.833,3828.835 831.5,3894.168 846.167,3786.168 766.833,3724.835 866.167,3724.835 918.167,3624.168 "/> <polygon fill="#FDEE66" stroke="#000000" stroke-width="15" stroke-linecap="round" stroke-linejoin="round" stroke-miterlimit="10" points=" 1618.167,3357.335 1710.167,3369.335 1630.167,3434.001 1645.5,3522.667 1569.5,3457.335 1498.167,3522.667 1512.833,3414.667 1433.5,3353.335 1532.833,3353.335 1584.834,3252.667 "/> <polygon fill="#FDEE66" stroke="#000000" stroke-width="15" stroke-linecap="round" stroke-linejoin="round" stroke-miterlimit="10" points=" 2230.334,3635.168 2322.334,3647.168 2242.334,3711.834 2257.667,3800.502 2181.667,3735.168 2110.334,3800.502 2125,3692.502 2045.667,3631.168 2145,3631.168 2197.001,3530.502 "/> </svg>